<svg width="139" height="80" viewBox="0 0 139 80" fill="none" xmlns="http://www.w3.org/2000/svg">
<g clip-path="url(#clip0_250_1577)">
<path d="M1.6 46.46L0 46.17L2.63 31.17C2.72 30.79 2.25 30.37 1.63 29.66L2.8 28.54C3.58074 29.1487 4.10807 30.0252 4.28 31C4.93 30.53 6.06 29.78 6.76 29.36C7.1886 29.1391 7.65204 28.9937 8.13 28.93C8.62627 28.8393 9.13646 28.8595 9.624 28.9892C10.1115 29.1188 10.5644 29.3548 10.95 29.68L9.87 31C9.54606 30.7661 9.16453 30.6248 8.76637 30.5914C8.36821 30.5579 7.96845 30.6335 7.61 30.81L5.21 32.36L4 33.25L1.6 46.46Z" fill="#FF4A17"/>
<path d="M17.1 46.4101C15.7602 46.4491 14.4576 45.9662 13.4669 45.0632C12.4763 44.1602 11.875 42.9078 11.79 41.5701C11.8418 38.7247 12.3344 35.9046 13.25 33.2101C13.7216 32.0149 14.5183 30.9757 15.55 30.2101V30.2001C16.5082 29.4545 17.6314 28.95 18.8252 28.7289C20.019 28.5079 21.2485 28.5769 22.41 28.9301C23.2018 29.1547 23.9193 29.5863 24.4888 30.1803C25.0583 30.7744 25.4591 31.5096 25.65 32.3101C26.0367 33.8034 25.8881 35.3849 25.23 36.7801C25.103 36.998 24.9343 37.1888 24.7336 37.3415C24.5328 37.4942 24.304 37.6059 24.06 37.6701C22.46 38.0501 13.63 38.6701 13.63 38.6701C13.4813 39.6158 13.4177 40.573 13.44 41.5301C13.4992 42.4438 13.9172 43.297 14.6027 43.9039C15.2883 44.5108 16.1859 44.8221 17.1 44.7701H18C19.0881 44.7111 20.1396 44.357 21.0416 43.7457C21.9436 43.1343 22.6622 42.2889 23.12 41.3001L24.67 41.8601C24.1308 43.1841 23.199 44.3113 22 45.0901C20.8281 45.919 19.4351 46.3787 18 46.4101H17.1ZM13.91 37.0001L23.68 36.1001C23.73 36.1001 23.77 36.1001 23.87 35.9201C24.2722 34.9008 24.3387 33.7798 24.06 32.7201C23.9167 32.1973 23.6421 31.7198 23.2623 31.333C22.8825 30.9462 22.4101 30.663 21.89 30.5101C21.2436 30.3092 20.5652 30.2312 19.89 30.2801C18.7989 30.3323 17.7433 30.6848 16.8399 31.2989C15.9364 31.913 15.2201 32.7647 14.77 33.7601C14.3979 34.8156 14.1103 35.899 13.91 37.0001Z" fill="#FF4A17"/>
<path d="M32.23 46.2201L29.23 28.3701L30.97 28.6501L33.55 43.6501L41.55 28.3401L43.25 28.6201L33.88 46.5001L32.23 46.2201Z" fill="#FF4A17"/>
<path d="M49.2399 46.4101C47.9001 46.4491 46.5974 45.9662 45.6068 45.0632C44.6162 44.1602 44.0149 42.9078 43.9299 41.5701C43.9769 38.7243 44.4695 35.9034 45.3899 33.2101C45.8614 32.0149 46.6582 30.9757 47.6899 30.2101V30.2001C48.6481 29.4545 49.7713 28.95 50.9651 28.7289C52.1589 28.5079 53.3884 28.5769 54.5499 28.9301C55.3416 29.1547 56.0592 29.5863 56.6287 30.1803C57.1981 30.7744 57.599 31.5096 57.7899 32.3101C58.1766 33.8034 58.028 35.3849 57.3699 36.7801C57.2422 36.9994 57.0721 37.191 56.8695 37.3438C56.6669 37.4967 56.4359 37.6076 56.1899 37.6701C54.5999 38.0501 45.7599 38.6701 45.7599 38.6701C45.6137 39.616 45.5535 40.5733 45.5799 41.5301C45.6391 42.4438 46.0571 43.297 46.7426 43.9039C47.4282 44.5108 48.3258 44.8221 49.2399 44.7701H50.1299C51.2203 44.7199 52.2756 44.3693 53.1791 43.7569C54.0827 43.1445 54.7994 42.2943 55.2499 41.3001L56.7999 41.8601C56.2624 43.1878 55.3305 44.3187 54.1299 45.1001C52.958 45.929 51.565 46.3887 50.1299 46.4201L49.2399 46.4101ZM46.0499 37.0001L55.8199 36.1001C55.8199 36.1001 55.9099 36.1001 56.0099 35.9201C56.4137 34.9008 56.4768 33.7782 56.1899 32.7201C56.052 32.1881 55.7773 31.7015 55.3931 31.3085C55.0089 30.9156 54.5286 30.63 53.9999 30.4801C53.3535 30.2792 52.6751 30.2012 51.9999 30.2501C50.9088 30.3023 49.8532 30.6548 48.9498 31.2689C48.0463 31.883 47.33 32.7347 46.8799 33.7301C46.5164 34.7962 46.2388 35.8897 46.0499 37.0001Z" fill="#FF4A17"/>
<path d="M62.87 46.88C62.02 46.08 61.13 45.19 61.36 43.97L65.54 20.24L67.19 20.52L63 44.25C62.9 44.62 63.33 45.09 64 45.75L62.87 46.88Z" fill="#FF4A17"/>
<path fill-rule="evenodd" clip-rule="evenodd" d="M99 5.77005C104.058 6.5658 108.841 8.5964 112.927 11.682C117.013 14.7677 120.275 18.8132 122.424 23.4603C124.573 28.1073 125.543 33.2127 125.249 38.3242C124.954 43.4357 123.403 48.3957 120.734 52.765C118.065 57.1343 114.36 60.778 109.947 63.3736C105.533 65.9692 100.548 67.4365 95.4323 67.6457C90.3165 67.8548 85.2281 66.7993 80.6177 64.5727C76.0072 62.346 72.0169 59.0169 69 54.88C68.8666 54.7082 68.7929 54.4976 68.79 54.28C68.79 54.0148 68.8954 53.7605 69.0829 53.5729C69.2705 53.3854 69.5248 53.28 69.79 53.28C69.9419 53.2831 70.0911 53.3207 70.2262 53.39C70.3614 53.4593 70.4789 53.5585 70.57 53.68C73.3924 57.5706 77.1315 60.7042 81.4555 62.8029C85.7795 64.9016 90.5548 65.9005 95.3574 65.7109C100.16 65.5213 104.842 64.1491 108.987 61.7161C113.132 59.283 116.612 55.8644 119.119 51.7635C121.626 47.6626 123.082 43.0063 123.358 38.2078C123.633 33.4093 122.72 28.6169 120.699 24.256C118.678 19.8951 115.612 16.1005 111.773 13.2089C107.933 10.3173 103.439 8.4182 98.69 7.68005C98.4157 8.21662 97.9919 8.66227 97.4698 8.96315C96.9476 9.26403 96.3495 9.40726 95.7477 9.37553C95.1459 9.3438 94.5662 9.13847 94.0786 8.78436C93.591 8.43024 93.2164 7.94249 93 7.38005C90.3654 7.49521 87.7584 7.96615 85.25 8.78005C85.1498 8.81201 85.0453 8.82886 84.94 8.83005C84.7242 8.80384 84.5227 8.70798 84.3662 8.55698C84.2097 8.40599 84.1067 8.2081 84.0728 7.9933C84.0389 7.7785 84.0759 7.55849 84.1783 7.36663C84.2806 7.17476 84.4427 7.02149 84.64 6.93005C87.3406 6.06128 90.1458 5.56011 92.98 5.44005C93.193 4.78904 93.6149 4.22653 94.1802 3.83985C94.7456 3.45317 95.4228 3.26395 96.1067 3.30157C96.7906 3.33919 97.443 3.60153 97.9626 4.04788C98.4821 4.49423 98.8398 5.09961 98.98 5.77005H99Z" fill="#FF4A17"/>
<path fill-rule="evenodd" clip-rule="evenodd" d="M128.92 23.7601C132.083 32.3757 131.932 41.8595 128.494 50.3695C125.057 58.8795 118.58 65.8083 110.32 69.8101C110.325 69.8934 110.325 69.9769 110.32 70.0601C110.322 70.7071 110.123 71.3388 109.749 71.8671C109.376 72.3954 108.847 72.7941 108.236 73.0076C107.625 73.2211 106.963 73.2388 106.342 73.0582C105.721 72.8776 105.171 72.5077 104.77 72.0001C95.61 74.7164 85.7551 73.7922 77.26 69.4201C77.1032 69.3367 76.9715 69.2131 76.8784 69.062C76.7853 68.9108 76.734 68.7376 76.73 68.5601C76.73 68.2949 76.8353 68.0405 77.0229 67.853C77.2104 67.6655 77.4648 67.5601 77.73 67.5601C77.8865 67.5611 78.0407 67.5987 78.18 67.6701C86.2075 71.8031 95.5178 72.6876 104.18 70.1401V70.0701C104.19 69.4395 104.392 68.8269 104.757 68.3131C105.123 67.7992 105.636 67.4082 106.228 67.1916C106.82 66.9751 107.465 66.9431 108.075 67.0999C108.686 67.2567 109.235 67.595 109.65 68.0701C117.441 64.2483 123.538 57.6727 126.762 49.6152C129.985 41.5578 130.106 32.5912 127.1 24.4501C127.06 24.3447 127.04 24.2329 127.04 24.1201C127.04 23.8549 127.145 23.6005 127.333 23.413C127.52 23.2255 127.775 23.1201 128.04 23.1201C128.233 23.1304 128.418 23.1964 128.575 23.3099C128.731 23.4235 128.851 23.5799 128.92 23.7601Z" fill="#FF4A17"/>
<path fill-rule="evenodd" clip-rule="evenodd" d="M136.83 40.6901C137.432 40.9856 137.923 41.4679 138.229 42.0651C138.534 42.6622 138.639 43.3422 138.526 44.0036C138.414 44.6649 138.09 45.2722 137.605 45.7347C137.119 46.1973 136.496 46.4903 135.83 46.5701C133.578 55.9178 128.247 64.2359 120.694 70.1856C113.141 76.1352 103.805 79.3703 94.1901 79.3701C93.4001 79.3701 92.6001 79.3701 91.8201 79.3001C91.6039 79.2459 91.412 79.121 91.2748 78.9453C91.1377 78.7695 91.0632 78.553 91.0632 78.3301C91.0632 78.1072 91.1377 77.8907 91.2748 77.7149C91.412 77.5392 91.6039 77.4143 91.8201 77.3601H91.9001C92.6501 77.3601 93.4101 77.4201 94.1701 77.4201C103.34 77.429 112.246 74.3556 119.459 68.6936C126.671 63.0316 131.772 55.1096 133.94 46.2001C133.384 45.882 132.939 45.4004 132.666 44.8206C132.393 44.2408 132.305 43.5911 132.414 42.9596C132.524 42.3282 132.825 41.7457 133.277 41.2913C133.728 40.8369 134.309 40.5328 134.94 40.4201C135.06 39.1501 135.13 37.8601 135.13 36.5501C135.128 29.5904 133.348 22.7466 129.958 16.6683C126.568 10.59 121.681 5.4789 115.76 1.82009C115.617 1.73092 115.5 1.60719 115.417 1.46036C115.335 1.31353 115.291 1.14834 115.29 0.980093C115.299 0.807857 115.352 0.640754 115.444 0.495011C115.536 0.349267 115.664 0.229838 115.816 0.148322C115.968 0.0668047 116.139 0.025971 116.311 0.0297858C116.483 0.0336006 116.652 0.0819344 116.8 0.170093C122.984 4.0143 128.085 9.3731 131.62 15.7393C135.155 22.1055 137.007 29.2684 137 36.5501C137 38.0001 137 39.3301 136.83 40.6901Z" fill="#FF4A17"/>
<path d="M80.7199 33.2101H77.8099L75.9999 43.4001C76.3939 43.8723 76.8401 44.2983 77.3299 44.6701L75.0999 47.0001C74.8199 47.0001 74.4599 46.9101 74.3899 46.7701L74.3099 46.6701C73.3099 45.7301 72.5299 44.7401 72.7699 43.3801L74.5699 33.1901H72.6899L73.2699 29.9001H75.1499L76.6999 21.1101H79.9399L78.3899 29.9001H81.2999L80.7199 33.2101Z" fill="#FF4A17"/>
<path d="M88.2601 46.1302C86.8941 46.1251 85.5696 45.6601 84.5001 44.8102C84.0093 44.3814 83.6134 43.8548 83.3379 43.2641C83.0624 42.6735 82.9133 42.0318 82.9001 41.3802C82.8913 40.0379 83.0152 38.6981 83.2701 37.3802C83.4829 36.0392 83.8176 34.7204 84.2701 33.4402C84.8087 32.039 85.8063 30.8616 87.1001 30.1002C88.3626 29.2609 89.8264 28.7741 91.3401 28.6902H92.0001C93.3533 28.7289 94.6565 29.2101 95.7101 30.0602C96.2117 30.5044 96.6189 31.0449 96.9075 31.6496C97.1961 32.2543 97.3602 32.9108 97.3901 33.5802C97.3623 34.7242 97.2722 35.8659 97.1201 37.0002L96.8401 38.5502L86.2201 39.3502C86.1844 39.7895 86.1844 40.2309 86.2201 40.6702C86.2919 41.3074 86.5975 41.8953 87.0778 42.3202C87.558 42.7451 88.1789 42.9767 88.8201 42.9702H89.5201C90.9301 42.9702 92.6001 41.5202 93.1901 39.7802L96.3101 40.4302C95.7674 42.2116 94.6534 43.7649 93.1401 44.8502C91.9041 45.6496 90.4716 46.0925 89.0001 46.1302H88.2601ZM90.7801 31.8902C90.0513 31.9124 89.3435 32.1401 88.7385 32.547C88.1334 32.954 87.6556 33.5236 87.3601 34.1902C87.0823 34.8133 86.8582 35.459 86.6901 36.1202C87.1201 36.1202 93.5801 35.4602 94.0401 35.4602C94.0401 35.0802 94.0401 34.5202 94.0401 34.1902C93.9841 33.5466 93.6831 32.9491 93.1993 32.5211C92.7154 32.0931 92.0857 31.8672 91.4401 31.8902H90.7801Z" fill="#FF4A17"/>
<path d="M103.43 46.1702H100.24L104.65 21.1702H107.85L105.25 35.9202H106C108.14 33.4302 111.1 29.9202 113.11 27.6102L115.5 29.4902L109.5 36.3502C110.099 36.7687 110.581 37.3332 110.9 37.9902L113.9 46.2602H110.24L107.72 39.5002C107.684 39.4059 107.622 39.3242 107.54 39.2655C107.458 39.2067 107.361 39.1736 107.26 39.1702H104.67L103.43 46.1702Z" fill="#FF4A17"/>
</g>
<defs>
<clipPath id="clip0_250_1577">
<rect width="138.58" height="79.37" fill="white"/>
</clipPath>
</defs>
</svg>
